<svg xmlns="http://www.w3.org/2000/svg" viewBox="0 0 400 300" width="640" height="360">
  <defs>
    <filter id="glow">
      <feGaussianBlur stdDeviation="3" result="blur"/>
      <feMerge><feMergeNode in="blur"/><feMergeNode in="SourceGraphic"/></feMerge>
    </filter>
    <filter id="scanlines">
      <feImage result="pattern" width="400" height="2" xlink:href="data:image/svg+xml,%3Csvg xmlns='http://www.w3.org/2000/svg' width='400' height='4'%3E%3Crect width='400' height='2' fill='rgba(0,0,0,0.15)'/%3E%3C/svg%3E" preserveAspectRatio="none"/>
      <feTile in="pattern" result="tiles"/>
      <feComposite in="SourceGraphic" in2="tiles" operator="atop"/>
    </filter>
    <radialGradient id="screenGlow" cx="50%" cy="50%" r="60%">
      <stop offset="0%" style="stop-color:#0a2a0a"/>
      <stop offset="100%" style="stop-color:#0a1a0a"/>
    </radialGradient>
  </defs>

  <!-- Background -->
  <rect width="400" height="300" fill="#0a1a0a"/>
  <rect width="400" height="300" fill="url(#screenGlow)"/>

  <!-- Screen border -->
  <rect x="4" y="4" width="392" height="292" fill="none" stroke="#1a3a1a" stroke-width="3" rx="2"/>
  <rect x="8" y="8" width="384" height="284" fill="none" stroke="#0f2a0f" stroke-width="1" rx="1"/>

  <!-- Scanline effect approximation -->
  <g opacity="0.1">
    <line x1="0" y1="0" x2="400" y2="0" stroke="#000" stroke-width="2" transform="translate(0,10)"/>
    <line x1="0" y1="0" x2="400" y2="0" stroke="#000" stroke-width="2" transform="translate(0,14)"/>
    <line x1="0" y1="0" x2="400" y2="0" stroke="#000" stroke-width="2" transform="translate(0,18)"/>
    <line x1="0" y1="0" x2="400" y2="0" stroke="#000" stroke-width="2" transform="translate(0,22)"/>
  </g>

  <!-- Cipher wheel (outer ring) -->
  <circle cx="310" cy="160" r="65" fill="none" stroke="#005518" stroke-width="2"/>
  <circle cx="310" cy="160" r="50" fill="none" stroke="#003d10" stroke-width="1.5"/>
  <circle cx="310" cy="160" r="12" fill="#0a150a" stroke="#005518" stroke-width="1.5"/>
  <circle cx="310" cy="160" r="3" fill="#00FF41"/>

  <!-- Wheel letters (outer) -->
  <g font-family="Courier New, monospace" font-size="9" fill="#00AA2A" text-anchor="middle" filter="url(#glow)">
    <text x="310" y="100">A</text>
    <text x="335" y="103">B</text>
    <text x="355" y="113">C</text>
    <text x="368" y="130">D</text>
    <text x="373" y="150">E</text>
    <text x="370" y="170">F</text>
    <text x="360" y="188">G</text>
    <text x="345" y="202">H</text>
    <text x="325" y="210">I</text>
    <text x="310" y="215">J</text>
    <text x="295" y="210">K</text>
    <text x="275" y="202">L</text>
    <text x="260" y="188">M</text>
    <text x="250" y="170">N</text>
    <text x="247" y="150">O</text>
    <text x="252" y="130">P</text>
    <text x="265" y="113">Q</text>
    <text x="285" y="103">R</text>
  </g>

  <!-- Wheel letters (inner, shifted) -->
  <g font-family="Courier New, monospace" font-size="8" fill="#FFB000" text-anchor="middle">
    <text x="310" y="115">D</text>
    <text x="330" y="118">E</text>
    <text x="345" y="128">F</text>
    <text x="353" y="143">G</text>
    <text x="356" y="160">H</text>
    <text x="352" y="177">I</text>
    <text x="342" y="190">J</text>
    <text x="328" y="198">K</text>
    <text x="310" y="203">L</text>
    <text x="292" y="198">M</text>
    <text x="278" y="190">N</text>
    <text x="268" y="177">O</text>
    <text x="264" y="160">P</text>
    <text x="267" y="143">Q</text>
    <text x="275" y="128">R</text>
    <text x="290" y="118">S</text>
  </g>

  <!-- Encrypted text on "screen" -->
  <rect x="30" y="40" width="220" height="50" fill="#0d200d" stroke="#1a4a1a" stroke-width="1" rx="2"/>
  <text x="140" y="72" font-family="Courier New, monospace" font-size="24" font-weight="bold" fill="#00FF41" text-anchor="middle" filter="url(#glow)">DPRUH</text>
  <text x="140" y="55" font-family="Courier New, monospace" font-size="8" fill="#005518" text-anchor="middle">MESSAGGIO CIFRATO</text>

  <!-- Decoded text area -->
  <rect x="30" y="100" width="220" height="40" fill="#0a150a" stroke="#1a4a1a" stroke-width="1" rx="2"/>
  <text x="140" y="126" font-family="Courier New, monospace" font-size="20" font-weight="bold" fill="#FFB000" text-anchor="middle" filter="url(#glow)">AMORE</text>
  <text x="140" y="110" font-family="Courier New, monospace" font-size="7" fill="#005518" text-anchor="middle">DECODIFICATO</text>

  <!-- Morse code dots decoration (top) -->
  <g fill="#005518">
    <circle cx="20" cy="6" r="2"/><circle cx="28" cy="6" r="2"/><circle cx="36" cy="6" r="2"/>
    <rect x="44" y="4" width="10" height="4" rx="1"/>
    <circle cx="62" cy="6" r="2"/>
    <rect x="70" y="4" width="10" height="4" rx="1"/>
    <rect x="86" y="4" width="10" height="4" rx="1"/>
    <circle cx="104" cy="6" r="2"/><circle cx="112" cy="6" r="2"/>
    <rect x="120" y="4" width="10" height="4" rx="1"/>
  </g>

  <!-- CLASSIFICATO stamp -->
  <g transform="translate(140,220) rotate(-8)">
    <rect x="-75" y="-18" width="150" height="36" fill="none" stroke="#CC0000" stroke-width="2.5" opacity="0.7" rx="2"/>
    <rect x="-79" y="-22" width="158" height="44" fill="none" stroke="#CC0000" stroke-width="1.5" opacity="0.5" rx="2"/>
    <text x="0" y="5" font-family="Courier New, monospace" font-size="18" font-weight="bold" fill="#CC0000" text-anchor="middle" opacity="0.7">CLASSIFICATO</text>
  </g>

  <!-- Frequency bars -->
  <g transform="translate(30,155)">
    <rect x="0" y="30" width="8" height="20" fill="#005518"/>
    <rect x="12" y="15" width="8" height="35" fill="#005518"/>
    <rect x="24" y="25" width="8" height="25" fill="#005518"/>
    <rect x="36" y="10" width="8" height="40" fill="#00AA2A"/>
    <rect x="48" y="35" width="8" height="15" fill="#005518"/>
    <rect x="60" y="20" width="8" height="30" fill="#005518"/>
    <rect x="72" y="5" width="8" height="45" fill="#005518"/>
    <text x="0" y="58" font-family="Courier New, monospace" font-size="6" fill="#003d10">FREQUENZA</text>
  </g>

  <!-- Title -->
  <text x="200" y="270" font-family="Courier New, monospace" font-size="28" font-weight="bold" fill="#00FF41" text-anchor="middle" filter="url(#glow)">CODICE</text>
  <text x="200" y="288" font-family="Courier New, monospace" font-size="9" fill="#005518" text-anchor="middle">SISTEMA DI DECRITTAZIONE</text>

  <!-- Vignette overlay -->
  <rect width="400" height="300" fill="url(#screenGlow)" opacity="0.3"/>
</svg>
